:version 1.10
:name ASF
:units
  mass 1
  length 1
  angle deg
:documentation
  ASF file generated by Kaydara
:root
  axis xyz
  order  tx ty tz rx ry rz
  position 0 0 0
  orientation 0 0 0
:bonedata
  begin
    id 1
    name RightUpLegDummy
    direction -0.718183 -0.695806 0.00816078
    length 4.904
    axis 0 0 0 xyz
  end
  begin
    id 2
    name RightUpLeg
    direction 3.53989e-006 -0.995788 0.0916897
    length 17.4976
    axis -3.49089 -0.000906621 0.000287158 xyz
    dof rx ry rz
  end
  begin
    id 3
    name RightLeg
    direction 0.00371093 -0.995096 -0.0988418
    length 16.5821
    axis 3.68512 0.0193738 -0.131023 xyz
    dof rx ry rz
  end
  begin
    id 4
    name RightFoot
    direction 0.000791514 -0.46099 0.887405
    length 3.77069
    axis 4.84075e-005 -0.120479 -0.188788 xyz
    dof rx ry rz
  end
  begin
    id 5
    name RightToes
    direction 0.00124746 -0.014064 0.9999
    length 3.85082
    axis 0.00048216 0.542163 -0.142577 xyz
    dof rx ry rz
  end
  begin
    id 6
    name SpineDummy
    direction 8.36599e-015 1 5.97571e-016
    length 4.6813
    axis 0 0 0 xyz
  end
  begin
    id 7
    name Spine
    direction -4.63632e-008 0.999988 0.00495137
    length 10.1015
    axis -0.00138897 0.000121419 3.25764e-006 xyz
    dof rx ry rz
  end
  begin
    id 8
    name Spine1
    direction 0 0 0
    length 0
    axis -0.00138896 0.000121452 2.39764e-006 xyz
    dof rx ry rz
  end
  begin
    id 9
    name HEadDummy
    direction -3.91456e-008 0.999999 0.00127422
    length 3.43865
    axis -0.00138896 0.000121452 2.39764e-006 xyz
  end
  begin
    id 10
    name HEad
    direction -0.0222688 0.980941 0.193023
    length 5.12695
    axis -0.00138895 0.000121452 2.39764e-006 xyz
    dof rx ry rz
  end
  begin
    id 11
    name LeftShoulder1Dummy
    direction 0.998891 -0.0402508 -0.0244456
    length 3.5433
    axis -0.00138896 0.000121452 2.39764e-006 xyz
  end
  begin
    id 12
    name LeftShoulder1
    direction 0.99951 -0.000327743 0.0313091
    length 4.05031
    axis -0.00138896 0.000121452 2.39764e-006 xyz
    dof rx ry rz
  end
  begin
    id 13
    name LeftArm
    direction 0.998561 -0.00100054 -0.0536182
    length 10.3537
    axis -23.1894 0.134784 0.96751 xyz
    dof rx ry rz
  end
  begin
    id 14
    name LeftForeArm
    direction 0.998903 0.00866434 0.046012
    length 8.70632
    axis -9.91835 -0.06569 -0.177792 xyz
    dof rx ry rz
  end
  begin
    id 15
    name LeftHand
    direction 0.992938 -0.0411636 0.11126
    length 5.32135
    axis -0.00960227 -0.00340091 0.185174 xyz
    dof rx ry rz
  end
  begin
    id 16
    name RightShoulderDummy
    direction -0.998891 -0.0402509 -0.0244414
    length 3.5433
    axis -0.00138896 0.000121452 2.39764e-006 xyz
  end
  begin
    id 17
    name RightShoulder
    direction -0.99951 -0.000327827 0.0313133
    length 4.05031
    axis 0.215806 0.000203644 -0.00680151 xyz
    dof rx ry rz
  end
  begin
    id 18
    name RightArm
    direction -0.998573 -0.000999583 -0.053403
    length 10.3947
    axis -23.2009 -0.134239 -0.9641 xyz
    dof rx ry rz
  end
  begin
    id 19
    name RightForeArm
    direction -0.998898 0.00868026 0.0461306
    length 8.68355
    axis -9.92322 0.0658061 0.178869 xyz
    dof rx ry rz
  end
  begin
    id 20
    name RightHand
    direction -0.992843 -0.0414603 0.112003
    length 5.28593
    axis -0.00960634 0.00330671 -0.185226 xyz
    dof rx ry rz
  end
  begin
    id 21
    name LeftUpLegDummy
    direction 0.718183 -0.695806 0.00816078
    length 4.904
    axis 0 0 0 xyz
  end
  begin
    id 22
    name LeftUpLeg
    direction -6.8115e-006 -0.995793 0.0916336
    length 17.4976
    axis -3.48766 0.00143441 -0.000523914 xyz
    dof rx ry rz
  end
  begin
    id 23
    name LeftLeg
    direction -0.00601357 -0.995091 -0.0987824
    length 16.5821
    axis 3.68177 -0.00654038 -0.00028478 xyz
    dof rx ry rz
  end
  begin
    id 24
    name LeftFoot
    direction -0.00417578 -0.460984 0.887399
    length 3.77069
    axis 1.87232e-006 4.66002e-005 -8.1837e-006 xyz
    dof rx ry rz
  end
  begin
    id 25
    name LeftToes
    direction 0.00818058 -0.00485161 0.999955
    length 3.85048
    axis 1.06246e-005 4.65855e-005 -8.18502e-006 xyz
    dof rx ry rz
  end
:hierarchy
  begin
    root RightUpLegDummy SpineDummy LeftUpLegDummy
    RightUpLegDummy RightUpLeg
    RightUpLeg RightLeg
    RightLeg RightFoot
    RightFoot RightToes
    SpineDummy Spine
    Spine Spine1
    Spine1 HEadDummy LeftShoulder1Dummy RightShoulderDummy
    HEadDummy HEad
    LeftShoulder1Dummy LeftShoulder1
    LeftShoulder1 LeftArm
    LeftArm LeftForeArm
    LeftForeArm LeftHand
    RightShoulderDummy RightShoulder
    RightShoulder RightArm
    RightArm RightForeArm
    RightForeArm RightHand
    LeftUpLegDummy LeftUpLeg
    LeftUpLeg LeftLeg
    LeftLeg LeftFoot
    LeftFoot LeftToes
  end

:SAMPLES-PER-SECOND 30
:FULLY-SPECIFIED
:DEGREES
25
root  0.822397 39.8398 9.28628 174.884 -32.2474 -176.378
RightUpLeg  -1.55085 -6.64604 -2.89984
RightLeg  11.5362 -15.6577 -4.00478
RightFoot  -2.11856 -0.801198 9.73155
RightToes  6.35927e-011 1.30204e-014 -6.03759e-014
Spine  9.45898 0.915998 3.07
Spine1  4.37763 0.360458 4.59276
HEad  -9.60821 29.7371 -7.2954
LeftShoulder1  1.94701 -4.25488 -18.5405
LeftArm  6.67911 23.9579 -54.2784
LeftForeArm  32.3748 -45.2026 -9.02015
LeftHand  1.06472 -1.81867 -17.7092
RightShoulder  1.60238 2.57756 19.9963
RightArm  -32.1335 -19.1382 44.6675
RightForeArm  74.1608 79.4805 78.6431
RightHand  -1.17553 -0.985964 -30.464
LeftUpLeg  -15.3824 27.1708 14.9378
LeftLeg  23.3332 7.87435 4.09618
LeftFoot  7.62978 2.11515 -12.8245
LeftToes  7.40077e-010 7.2695e-011 -6.03601e-011
26
root  0.906657 39.9142 9.09186 175.15 -32.9255 -176.629
RightUpLeg  -0.883364 -6.74476 -2.90257
RightLeg  10.4545 -16.299 -3.77276
RightFoot  -1.70166 -0.799187 9.31888
RightToes  6.35927e-011 1.30204e-014 -6.03759e-014
Spine  8.53623 0.933155 1.06918
Spine1  4.86047 -0.357606 7.0976
HEad  -9.38688 29.913 -7.26222
LeftShoulder1  1.98394 -4.44337 -18.3999
LeftArm  5.89522 22.8457 -55.1666
LeftForeArm  37.0612 -50.2409 -10.6255
LeftHand  0.42559 3.48676 -27.7628
RightShoulder  1.61604 2.60365 20.1148
RightArm  -31.9412 -18.0148 46.1346
RightForeArm  38.8357 76.5823 52.4577
RightHand  -1.17549 -1.19562 -31.9381
LeftUpLeg  -13.1078 25.2213 14.3755
LeftLeg  14.9217 8.56374 2.51876
LeftFoot  11.0928 2.79727 -14.437
LeftToes  7.40077e-010 7.2695e-011 -6.03601e-011
27
root  0.881444 39.9401 8.91146 175.254 -34.0723 -176.284
RightUpLeg  -0.252842 -6.79829 -2.59792
RightLeg  9.3826 -17.4461 -3.47013
RightFoot  -1.33816 -0.812048 9.15496
RightToes  6.35927e-011 1.30204e-014 -6.03759e-014
Spine  7.54956 0.788147 0.0738434
Spine1  5.05205 -1.05148 9.05819
HEad  -8.58827 29.6265 -6.74439
LeftShoulder1  1.96415 -4.51128 -17.9031
LeftArm  3.64511 20.9632 -55.8822
LeftForeArm  32.9094 -53.7028 -12.5807
LeftHand  -1.30891 9.70923 -31.9869
RightShoulder  1.69321 2.76028 20.7254
RightArm  -31.0781 -18.1986 47.1019
RightForeArm  16.4746 73.1953 41.0202
RightHand  -1.16973 -1.60717 -35.0663
LeftUpLeg  -10.7977 19.328 14.5628
LeftLeg  7.49189 15.5906 1.19983
LeftFoot  16.0352 2.74313 -11.6761
LeftToes  7.40077e-010 7.2695e-011 -6.03601e-011
28
root  0.791406 39.9729 8.74124 175.193 -35.1734 -175.492
RightUpLeg  0.656074 -6.53926 -1.89911
RightLeg  7.58225 -19.0595 -3.03677
RightFoot  -0.737699 -0.848485 9.07106
RightToes  6.35927e-011 1.30204e-014 -6.03759e-014
Spine  6.52368 0.617438 -0.297074
Spine1  5.22401 -1.61419 10.4518
HEad  -7.5262 29.1281 -6.3196
LeftShoulder1  1.89659 -4.40985 -17.318
LeftArm  1.90002 18.5164 -56.117
LeftForeArm  32.8977 -56.181 -13.9626
LeftHand  -1.30112 9.65681 -31.4023
RightShoulder  1.78499 2.93812 21.4533
RightArm  -29.0881 -19.2777 47.5557
RightForeArm  6.83902 70.5147 34.6553
RightHand  -1.14306 -1.81434 -36.2639
LeftUpLeg  -8.89474 14.8392 14.557
LeftLeg  1.66246 21.4849 -0.122939
LeftFoot  18.1876 1.68403 -6.77343
LeftToes  7.40077e-010 7.2695e-011 -6.03601e-011
29
root  0.673947 40.0099 8.58121 175.029 -35.9128 -174.622
RightUpLeg  1.60588 -6.14114 -1.11297
RightLeg  5.69543 -20.4141 -2.5324
RightFoot  -0.10524 -0.884126 8.96246
RightToes  6.35927e-011 1.30204e-014 -6.03759e-014
Spine  5.52398 0.577176 -0.801211
Spine1  5.5256 -2.08744 12.0191
HEad  -6.68378 28.7364 -6.54961
LeftShoulder1  1.82316 -4.22895 -16.8964
LeftArm  1.95554 15.667 -55.9964
LeftForeArm  40.0185 -58.2824 -14.6068
LeftHand  -0.16368 5.736 -27.1088
RightShoulder  1.83524 3.05042 21.7642
RightArm  -25.9331 -20.6926 47.8038
RightForeArm  9.60234 68.5991 29.9962
RightHand  -0.846119 -2.40599 -31.8979
LeftUpLeg  -7.09921 13.7237 14.4415
LeftLeg  -2.97019 22.7611 -1.0525
LeftFoot  18.0033 1.02741 -4.34978
LeftToes  7.40077e-010 7.2695e-011 -6.03601e-011
30
root  0.551306 40.0209 8.44095 174.943 -36.5194 -173.954
RightUpLeg  2.08825 -5.91843 -0.581312
RightLeg  4.76045 -21.2394 -2.1964
RightFoot  0.171514 -0.900735 8.92929
RightToes  6.35927e-011 1.30204e-014 -6.03759e-014
Spine  4.59654 0.605596 -1.81733
Spine1  5.83973 -2.62808 14.1837
HEad  -6.10781 28.5784 -7.20418
LeftShoulder1  1.77977 -4.12265 -16.6345
LeftArm  2.9031 12.598 -55.8275
LeftForeArm  48.029 -59.8397 -14.8873
LeftHand  0.185379 3.97853 -17.6043
RightShoulder  1.84835 3.10731 21.7173
RightArm  -22.109 -21.9549 47.9904
RightForeArm  19.3594 67.3051 26.2634
RightHand  -0.474591 -3.01132 -22.4632
LeftUpLeg  -6.09471 13.3334 14.6373
LeftLeg  -5.5911 22.4036 -1.55234
LeftFoot  17.9885 1.16818 -4.8847
LeftToes  7.40077e-010 7.2695e-011 -6.03601e-011
31
root  0.449509 40.0301 8.33985 175.188 -37.2914 -173.858
RightUpLeg  2.12479 -5.91202 -0.571082
RightLeg  4.62866 -21.93 -2.15617
RightFoot  0.184373 -0.903333 8.94447
RightToes  6.35927e-011 1.30204e-014 -6.03759e-014
Spine  3.91086 0.50041 -3.18421
Spine1  5.95786 -3.23475 16.1337
HEad  -5.48369 28.5814 -7.4653
LeftShoulder1  1.74767 -4.11922 -16.1875
LeftArm  2.94174 9.6644 -55.7551
LeftForeArm  53.0272 -60.7438 -15.055
LeftHand  0.0529803 4.02727 -6.91601
RightShoulder  1.86341 3.15351 21.7511
RightArm  -17.8859 -22.7217 48.3968
RightForeArm  29.0602 66.0725 23.0706
RightHand  -0.212659 -3.47114 -12.1736
LeftUpLeg  -6.08005 13.0356 14.4431
LeftLeg  -6.54593 21.9432 -1.73526
LeftFoot  18.7871 1.32849 -5.36979
LeftToes  7.40077e-010 7.2695e-011 -6.03601e-011
32
root  0.359453 40.0381 8.31371 175.609 -38.2888 -174.166
RightUpLeg  1.96752 -5.97957 -0.895537
RightLeg  4.89732 -22.8033 -2.43779
RightFoot  0.124669 -0.903838 8.99495
RightToes  6.35927e-011 1.30204e-014 -6.03759e-014
Spine  3.68759 0.0974063 -3.82026
Spine1  5.80985 -3.77744 16.6911
HEad  -4.79176 28.6104 -7.02536
LeftShoulder1  1.6884 -4.12099 -15.3323
LeftArm  1.50858 7.12856 -55.6172
LeftForeArm  55.1416 -61.6114 -15.4988
LeftHand  -0.00423086 3.42562 -0.411947
RightShoulder  1.88979 3.20642 21.9349
RightArm  -13.3581 -22.9835 49.5118
RightForeArm  35.7957 64.3172 20.0934
RightHand  -0.0667172 -4.08088 -4.93251
LeftUpLeg  -6.8793 12.5751 13.6972
LeftLeg  -5.98483 21.6501 -1.44193
LeftFoot  18.8768 1.14536 -4.67186
LeftToes  7.40077e-010 7.2695e-011 -6.03601e-011
33
root  0.257712 40.0392 8.35347 175.819 -38.8471 -174.564
RightUpLeg  1.94806 -6.04967 -1.31811
RightLeg  5.26097 -23.2153 -2.83932
RightFoot  0.0739599 -0.911558 9.10717
RightToes  6.35927e-011 1.30204e-014 -6.03759e-014
Spine  3.85918 -0.273203 -3.16786
Spine1  5.77874 -3.91569 15.6662
HEad  -4.38884 28.5194 -6.47765
LeftShoulder1  1.61236 -4.06714 -14.405
LeftArm  -0.593091 4.87114 -55.2124
LeftForeArm  54.7969 -62.8286 -16.4943
LeftHand  -0.0354451 3.30497 1.07366
RightShoulder  1.90501 3.25846 21.9434
RightArm  -8.8998 -23.0118 51.3339
RightForeArm  39.3606 62.2152 17.6365
RightHand  -0.0411547 -4.2973 -2.30614
LeftUpLeg  -7.36116 12.1765 13.013
LeftLeg  -5.12083 21.5033 -1.10242
LeftFoot  18.1711 0.951176 -4.03946
LeftToes  7.40077e-010 7.2695e-011 -6.03601e-011
34
root  0.133584 40.0518 8.41031 175.8 -38.4314 -174.958
RightUpLeg  2.24418 -6.15427 -1.81293
RightLeg  5.21543 -22.6146 -2.95002
RightFoot  0.120475 -0.930202 9.25755
RightToes  6.35927e-011 1.30204e-014 -6.03759e-014
Spine  4.01629 -0.212008 -1.74994
Spine1  6.19257 -3.44236 13.7919
HEad  -4.35183 28.1812 -6.40836
LeftShoulder1  1.56405 -3.9754 -13.9829
LeftArm  -2.43332 2.59708 -54.5927
LeftForeArm  53.2474 -63.8566 -17.5423
LeftHand  -0.0253099 4.16911 0.138628
RightShoulder  1.8993 3.30181 21.6614
RightArm  -4.5412 -23.0715 53.1413
RightForeArm  39.7401 60.4092 16.1286
RightHand  -0.0536399 -3.85095 -2.61156
LeftUpLeg  -6.8699 12.1687 12.7739
LeftLeg  -5.02156 21.762 -1.25488
LeftFoot  17.8029 0.953011 -4.08938
LeftToes  7.40077e-010 7.2695e-011 -6.03601e-011
35
root  -0.014982 40.0842 8.45348 175.928 -37.3237 -175.421
RightUpLeg  2.56694 -6.37066 -2.47354
RightLeg  4.72891 -21.2654 -2.66189
RightFoot  0.2234 -0.953367 9.40941
RightToes  6.35927e-011 1.30204e-014 -6.03759e-014
Spine  3.85362 0.223138 -0.250647
Spine1  6.82113 -2.54938 11.7582
HEad  -4.27853 27.6318 -6.68359
LeftShoulder1  1.5592 -3.85179 -14.2965
LeftArm  -3.69058 0.364158 -53.8584
LeftForeArm  53.0445 -64.365 -18.0385
LeftHand  0.00307889 4.03849 -2.00183
RightShoulder  1.88632 3.33063 21.332
RightArm  0.24071 -23.23 54.2448
RightForeArm  38.4899 59.2571 15.4188
RightHand  -0.0497987 -3.18455 -1.77074
LeftUpLeg  -5.98279 12.2716 12.645
LeftLeg  -5.47903 22.7276 -1.68345
LeftFoot  17.8334 0.971315 -4.1559
LeftToes  7.40077e-010 7.2695e-011 -6.03601e-011
36
root  -0.169771 40.1152 8.49664 176.349 -36.2575 -175.935
RightUpLeg  2.53505 -6.70685 -3.25744
RightLeg  4.39893 -19.8423 -2.29113
RightFoot  0.237528 -0.967161 9.53411
RightToes  6.35927e-011 1.30204e-014 -6.03759e-014
Spine  3.58503 0.622831 0.996403
Spine1  7.11696 -1.73341 10.0295
HEad  -3.94012 27.1937 -7.00512
LeftShoulder1  1.58568 -3.69637 -15.2004
LeftArm  -4.44402 -1.34877 -52.9145
LeftForeArm  55.2426 -65.0096 -18.4211
LeftHand  0.116987 2.68887 -5.77343
RightShoulder  1.86735 3.31189 21.1152
RightArm  5.49624 -23.2843 54.5142
RightForeArm  37.8344 58.8552 15.2068
RightHand  0.0264305 -2.85185 2.11787
LeftUpLeg  -5.47309 12.0343 12.2296
LeftLeg  -5.83596 24.1036 -1.85758
LeftFoot  17.6254 0.902842 -3.91672
LeftToes  7.40077e-010 7.2695e-011 -6.03601e-011
